<svg width="69" height="76" viewBox="0 0 69 76" fill="none" xmlns="http://www.w3.org/2000/svg">
<circle cx="34.5" cy="34.5" r="34.5" fill="#FFA4E6"/>
<path d="M33.8983 34.4762C35.2706 31.2529 38.4055 29.0007 42.0517 29.0007C46.9634 29.0007 50.5009 33.1648 50.9456 38.1275C50.9456 38.1275 51.1856 39.3594 50.6573 41.5772C49.9378 44.5977 48.2466 47.2812 45.9665 49.3293L33.8983 60L22.0335 49.3286C19.7534 47.2812 18.0622 44.597 17.3427 41.5766C16.8144 39.3587 17.0544 38.1268 17.0544 38.1268C17.4991 33.1641 21.0366 29 25.9483 29C29.5952 29 32.5261 31.2529 33.8983 34.4762Z" fill="#80F5DE"/>
<path d="M20.6364 39C20.2845 39 20 38.7155 20 38.3636C20 34.8547 22.8547 32 26.3636 32C26.7155 32 27 32.2845 27 32.6364C27 32.9883 26.7155 33.2727 26.3636 33.2727C23.5566 33.2727 21.2727 35.5566 21.2727 38.3636C21.2727 38.7155 20.9883 39 20.6364 39Z" fill="white"/>
<ellipse cx="51.7637" cy="24.3397" rx="4.84755" ry="5.92478" transform="rotate(22.7837 51.7637 24.3397)" fill="white"/>
<ellipse cx="15.7954" cy="24.35" rx="4.71415" ry="5.89269" transform="rotate(-25.5631 15.7954 24.35)" fill="white"/>
<ellipse cx="26.871" cy="19.3163" rx="5.76116" ry="7.50247" transform="rotate(-9.06249 26.871 19.3163)" fill="white"/>
<ellipse cx="41.0655" cy="19.4495" rx="5.76116" ry="7.50247" transform="rotate(10.8052 41.0655 19.4495)" fill="white"/>
</svg>
