<svg width="75" height="66" viewBox="0 0 75 66" fill="none" xmlns="http://www.w3.org/2000/svg">
<path d="M49.9752 35.431C46.5785 30.1521 40.7935 27 34.4999 27C28.2069 27 22.4213 30.1521 19.0252 35.431L10.8403 48.1512C9.48232 50.262 8.85573 52.6997 9.02793 55.2006C9.20012 57.7021 10.1556 60.0315 11.7906 61.938C13.4267 63.8439 15.5887 65.1463 18.0427 65.7051C20.4966 66.2633 23.0122 66.0252 25.317 65.016L25.4673 64.9495C31.2673 62.4589 37.8966 62.4813 43.6822 65.016C45.1744 65.6695 46.7553 66 48.3506 66C49.2179 66 50.0904 65.9019 50.9549 65.7057C53.4088 65.1474 55.5708 63.8451 57.2075 61.9391C58.8431 60.0332 59.7991 57.7033 59.9719 55.2018C60.1447 52.6997 59.5181 50.262 58.1601 48.1506L49.9752 35.431ZM53.8448 59.0739C51.7629 61.4985 48.3949 62.265 45.4635 60.981C41.9793 59.4543 38.2393 58.6912 34.4982 58.6912C30.7605 58.6912 27.0211 59.4537 23.5392 60.9787L23.4401 61.0223C20.5312 62.2478 17.2128 61.4715 15.1539 59.0739C13.0743 56.6487 12.8376 53.2155 14.5653 50.5299L22.7507 37.8097C25.3297 33.8016 29.7216 31.4086 34.4999 31.4086C39.2783 31.4086 43.6707 33.8016 46.2502 37.8097L54.4345 50.5293C56.1628 53.2161 55.9256 56.6499 53.8448 59.0739Z" fill="#80F5DE"/>
<path d="M13.291 35.4153C15.6797 34.4473 17.4944 32.4165 18.4012 29.6966C19.2633 27.1085 19.1927 24.1867 18.2012 21.4686C17.2091 18.7524 15.4046 16.535 13.1204 15.2243C10.7198 13.848 8.0831 13.6238 5.69836 14.5936C0.900625 16.5398 -1.30107 22.7948 0.79102 28.5403C2.4622 33.1133 6.35994 36 10.3006 36C11.3068 36 12.3159 35.8116 13.291 35.4153ZM4.84186 26.8952C3.6091 23.5095 4.69215 19.9081 7.25768 18.8674C7.72096 18.679 8.21079 18.5855 8.71079 18.5855C9.48254 18.5855 10.2797 18.8078 11.0469 19.2483C12.4266 20.0393 13.5289 21.4126 14.1503 23.1143C14.7712 24.8173 14.8266 26.615 14.3057 28.1773C13.8283 29.609 12.9147 30.6617 11.7339 31.1403L11.7317 31.1415C9.16954 32.1834 6.07859 30.2778 4.84186 26.8952Z" fill="#80F5DE"/>
<path d="M28.9994 25C35.0651 25 40 19.3932 40 12.5014C40 5.60798 35.0651 0 28.9994 0C22.9343 0 18 5.60798 18 12.5014C18 19.3932 22.9343 25 28.9994 25ZM28.9994 4.37778C32.6442 4.37778 35.6102 8.02222 35.6102 12.5014C35.6102 16.9789 32.6442 20.6222 28.9994 20.6222C25.3547 20.6222 22.3898 16.9789 22.3898 12.5014C22.3898 8.02222 25.3547 4.37778 28.9994 4.37778Z" fill="#80F5DE"/>
<path d="M48.4624 28.5366H48.463C49.373 28.8502 50.3013 29 51.2258 29C55.54 29 59.7444 25.7403 61.3487 20.7308C62.2726 17.8471 62.2118 14.798 61.1776 12.1457C60.0954 9.36959 58.0899 7.3542 55.5299 6.47029C52.97 5.58755 50.1999 5.95545 47.7319 7.50691C45.3742 8.98953 43.5676 11.3937 42.6454 14.2773C40.6978 20.3605 43.3074 26.7573 48.4624 28.5366V28.5366ZM46.7083 15.679C47.3106 13.796 48.4619 12.2446 49.9503 11.3086C51.3272 10.4427 52.8296 10.2223 54.1797 10.6879C55.5294 11.1542 56.6049 12.2637 57.2089 13.8128C57.8614 15.4869 57.8893 17.4456 57.2858 19.3285C56.0827 23.0863 52.7304 25.325 49.8132 24.319C46.8983 23.3125 45.5052 19.4367 46.7083 15.679Z" fill="#80F5DE"/>
<path d="M71.4329 26.7038L71.4311 26.702C67.2028 23.5403 60.879 24.9107 57.3333 29.7586C53.791 34.6088 54.3449 41.1293 58.5669 44.2934C60.1067 45.4481 61.9261 46 63.7882 46C67.0335 46 70.41 44.3232 72.6666 41.2398C76.2088 36.3896 75.6555 29.8691 71.4329 26.7038V26.7038ZM69.1001 38.5674C67.0064 41.4281 63.4665 42.377 61.2076 40.6832C58.9504 38.9919 58.813 35.2887 60.9009 32.4298C62.2888 30.532 64.3161 29.4762 66.1845 29.4762C67.1294 29.4762 68.0339 29.7463 68.794 30.3151C71.0494 32.0083 71.1862 35.7102 69.1001 38.5674V38.5674Z" fill="#80F5DE"/>
</svg>
